<?xml version="1.0" encoding="utf-8"?>
<!-- Generator: Adobe Illustrator 14.0.0, SVG Export Plug-In . SVG Version: 6.00 Build 43363)  -->
<!DOCTYPE svg PUBLIC "-//W3C//DTD SVG 1.1//EN" "http://www.w3.org/Graphics/SVG/1.1/DTD/svg11.dtd">
<svg version="1.1"
	 id="Layer_1" shape-rendering="geometricPrecision" text-rendering="geometricPrecision" image-rendering="optimizeQuality"
	 xmlns="http://www.w3.org/2000/svg" xmlns:xlink="http://www.w3.org/1999/xlink" x="0px" y="0px" width="538.58px"
	 height="368.5px" viewBox="0 0 538.58 368.5" enable-background="new 0 0 538.58 368.5" xml:space="preserve">
<path fill="#6B6B6B" stroke="#434242" stroke-width="10" stroke-linejoin="round" d="M320.88,149.611v182.776
	c0,3.686-3.686,3.686-7.369,0l-40.535-40.535c-3.686-3.685-3.686-3.685-7.371,0l-40.535,40.535c-3.685,3.686-7.37,3.686-7.37,0
	V149.611H320.88z"/>
<polygon fill="#2D7DF5" stroke="#434242" stroke-width="10" stroke-linejoin="round" points="186.009,56.749 205.171,56.749
	210.33,37.587 228.755,42.746 239.073,25.795 255.287,36.113 269.29,22.11 283.293,36.113 299.507,25.795 309.825,42.746
	328.25,37.587 333.409,56.749 352.571,56.749 352.571,75.911 371.733,81.07 366.574,99.495 383.524,109.813 373.207,126.027
	387.21,140.03 373.207,154.033 383.524,170.247 366.574,180.565 371.733,198.99 352.571,204.148 352.571,223.311 333.409,223.311
	328.25,242.473 309.825,237.314 299.507,254.266 283.293,243.947 269.29,257.95 255.287,243.947 239.073,254.266 228.755,237.314
	210.33,242.473 205.171,223.311 186.009,223.311 186.009,204.148 166.847,198.99 172.006,180.565 155.055,170.247 165.373,154.033
	151.37,140.03 165.373,126.027 155.055,109.813 172.006,99.495 166.847,81.07 186.009,75.911 "/>
<circle fill="none" stroke="#FFFFFF" stroke-width="10" stroke-linejoin="round" cx="269.29" cy="140.03" r="71.489"/>
<g>
	<path fill="#FFFFFF" d="M261.192,150.662c0,6.766-1.552,11.51-4.626,14.287c-3.085,2.749-7.628,4.126-13.672,4.126
		c-6.158,0-10.504-1.532-13.118-4.578c-2.62-3.069-3.938-7.498-3.938-13.361v-1.177h13.201v2.754c0,2.652,0.354,4.446,1.063,5.332
		c0.706,0.88,1.612,1.338,2.715,1.338c1.12,0,2.026-0.458,2.737-1.338c0.708-0.885,1.063-2.68,1.063-5.332v-40.648h14.612v38.597
		H261.192z"/>
	<path fill="#FFFFFF" d="M288.852,126.941c0-1.691-0.334-3.109-1.025-4.292c-0.687-1.217-1.732-1.771-3.144-1.771
		c-1.574,0-2.721,0.514-3.446,1.537c-0.748,1.006-1.103,2.126-1.103,3.423c0,1.812,0.571,3.286,1.771,4.343
		c1.18,1.085,2.654,2.029,4.429,2.817c1.786,0.789,3.717,1.554,5.743,2.377c2.062,0.806,3.955,1.869,5.727,3.167
		c1.788,1.303,3.285,3.034,4.445,5.154c1.2,2.131,1.771,4.903,1.771,8.303c0,5.983-1.691,10.309-5.114,13.024
		c-3.386,2.697-8.326,4.052-14.738,4.052c-3.051,0-5.726-0.274-8.063-0.743c-2.326-0.514-4.312-1.377-5.886-2.6
		c-1.614-1.257-2.834-2.852-3.681-4.84c-0.823-2.006-1.257-4.446-1.257-7.372v-1.989h14.144v1.337c0,2.4,0.435,4.092,1.314,5.058
		c0.909,0.983,2.068,1.458,3.466,1.458c1.534,0,2.678-0.515,3.501-1.578c0.806-1.04,1.222-2.32,1.222-3.834
		c0-1.852-0.53-3.269-1.69-4.366c-1.126-1.086-2.541-2.012-4.252-2.755c-1.691-0.771-3.541-1.531-5.506-2.326
		c-1.992-0.783-3.857-1.806-5.547-3.069c-1.691-1.234-3.108-2.909-4.251-4.955c-1.123-2.023-1.674-4.681-1.674-7.966
		c0-5.726,1.52-10.075,4.549-13.046c3.049-2.989,7.672-4.503,13.869-4.503c6.375,0,10.998,1.377,13.87,4.132
		c2.852,2.771,4.286,7.138,4.286,13.178h-13.693v-1.354H288.852L288.852,126.941z"/>
</g>
</svg>
