<?xml version="1.0" encoding="utf-8"?>
<!-- Generator: Adobe Illustrator 14.0.0, SVG Export Plug-In . SVG Version: 6.00 Build 43363)  -->
<!DOCTYPE svg PUBLIC "-//W3C//DTD SVG 1.1//EN" "http://www.w3.org/Graphics/SVG/1.1/DTD/svg11.dtd">
<svg version="1.1" id="Layer_1" xmlns="http://www.w3.org/2000/svg" xmlns:xlink="http://www.w3.org/1999/xlink" x="0px" y="0px"
	 width="539px" height="539px" viewBox="616.5 -40.791 539 539" enable-background="new 616.5 -40.791 539 539"
	 xml:space="preserve">
<path fill="#317FED" stroke="#424242" d="M1142,404.709c0,44.182-35.816,80-80,80H710c-44.184,0-80-35.818-80-80v-352
	c0-44.183,35.818-80,80-80h352c44.184,0,80,35.817,80,80V404.709z"/>
<path fill="#1A69C6" d="M992.43,126.728l-0.742-0.743c-27.115-26.927-64.461-43.567-105.69-43.567
	C803.165,82.417,736,149.572,736,232.42c0,41.253,16.659,78.613,43.616,105.726l0.629,0.631L926.18,484.709H1062
	c44.184,0,80-35.818,80-80V276.297L992.43,126.728z"/>
<path fill="#FFFFFF" d="M885.996,82.417C803.165,82.417,736,149.572,736,232.42c0,66.265,42.977,122.488,102.587,142.324
	c7.5,1.377,10.233-3.254,10.233-7.229c0-3.561-0.125-12.994-0.198-25.512c-41.726,9.064-50.529-20.105-50.529-20.105
	c-6.825-17.33-16.653-21.943-16.653-21.943c-13.625-9.307,1.033-9.119,1.033-9.119c15.055,1.062,22.967,15.459,22.967,15.459
	c13.381,22.922,35.107,16.303,43.66,12.463c1.357-9.693,5.242-16.303,9.522-20.053c-33.31-3.785-68.325-16.654-68.325-74.135
	c0-16.375,5.846-29.766,15.439-40.25c-1.537-3.795-6.689-19.046,1.467-39.693c0,0,12.6-4.038,41.258,15.377
	c11.96-3.327,24.793-5,37.553-5.054c12.732,0.054,25.565,1.727,37.555,5.054c28.631-19.415,41.201-15.377,41.201-15.377
	c8.185,20.647,3.041,35.898,1.494,39.693c9.613,10.485,15.412,23.875,15.412,40.25c0,57.625-35.07,70.305-68.486,74.018
	c5.396,4.633,10.188,13.785,10.188,27.779c0,20.053-0.188,36.229-0.188,41.148c0,4.012,2.707,8.678,10.322,7.211
	C993.062,354.854,1036,298.668,1036,232.42C1036,149.572,968.835,82.417,885.996,82.417z"/>
<g id="Layer_3">
	<path fill="none" stroke="#424242" stroke-width="27" d="M1142,404.709c0,44.182-35.816,80-80,80H710c-44.184,0-80-35.818-80-80
		v-352c0-44.183,35.818-80,80-80h352c44.184,0,80,35.817,80,80V404.709z"/>
</g>
</svg>
