<?xml version="1.0" encoding="utf-8"?>
<!-- Generator: Adobe Illustrator 14.0.0, SVG Export Plug-In . SVG Version: 6.00 Build 43363)  -->
<!DOCTYPE svg PUBLIC "-//W3C//DTD SVG 1.1//EN" "http://www.w3.org/Graphics/SVG/1.1/DTD/svg11.dtd">
<svg version="1.1" id="Layer_1" xmlns="http://www.w3.org/2000/svg" xmlns:xlink="http://www.w3.org/1999/xlink" x="0px" y="0px"
	 width="290px" height="296px" viewBox="0 0 290 296" enable-background="new 0 0 290 296" xml:space="preserve">
<path opacity="0.61" fill="#1A1A1A" enable-background="new    " d="M140.6,11.895c2.492,3.891,6.57,3.891,9.062,0
	c2.492-3.89,6.154-3.66,8.14,0.513c1.985,4.172,6.031,4.684,8.991,1.136s6.564-2.86,8.012,1.527
	c1.446,4.389,5.396,5.402,8.777,2.254c3.382-3.148,6.872-2.014,7.757,2.521c0.886,4.535,4.677,6.036,8.427,3.336
	c3.75-2.7,7.07-1.137,7.379,3.474c0.311,4.61,3.883,6.575,7.942,4.366s7.157-0.242,6.886,4.37c-0.27,4.613,3.029,7.009,7.332,5.326
	c4.303-1.682,7.131,0.657,6.286,5.199c-0.846,4.543,2.126,7.334,6.606,6.204c4.479-1.13,6.992,1.546,5.582,5.946
	c-1.409,4.4,1.191,7.543,5.777,6.982c4.586-0.559,6.744,2.411,4.795,6.599c-1.951,4.189,0.233,7.632,4.855,7.651
	c4.62,0.02,6.389,3.236,3.929,7.147c-2.46,3.912-0.723,7.603,3.859,8.201c4.582,0.599,5.932,4.012,3.002,7.583
	c-2.931,3.573-1.67,7.45,2.801,8.62c4.47,1.168,5.384,4.722,2.029,7.9c-3.354,3.178-2.591,7.183,1.698,8.903
	c4.289,1.718,4.748,5.359,1.021,8.091c-3.729,2.731-3.471,6.801,0.568,9.044c4.039,2.242,4.039,5.914,0,8.157
	c-4.039,2.242-4.297,6.312-0.568,9.045c3.727,2.73,3.268,6.371-1.021,8.091s-5.053,5.728-1.698,8.901
	c3.354,3.178,2.44,6.732-2.029,7.9c-4.471,1.168-5.731,5.047-2.801,8.619c2.93,3.573,1.58,6.986-3.002,7.585s-6.319,4.287-3.859,8.2
	c2.459,3.91,0.691,7.128-3.929,7.146c-4.622,0.02-6.807,3.461-4.855,7.651c1.949,4.188-0.209,7.157-4.795,6.599
	c-4.587-0.562-7.187,2.582-5.777,6.982c1.41,4.4-1.103,7.075-5.582,5.945c-4.48-1.131-7.452,1.662-6.606,6.203
	c0.847,4.543-1.981,6.884-6.286,5.199c-4.303-1.684-7.602,0.715-7.332,5.326c0.271,4.612-2.828,6.578-6.886,4.37
	c-4.06-2.209-7.632-0.245-7.942,4.365c-0.31,4.61-3.629,6.173-7.379,3.473s-7.541-1.198-8.427,3.335
	c-0.886,4.536-4.376,5.672-7.757,2.521c-3.381-3.148-7.331-2.133-8.777,2.255c-1.447,4.389-5.052,5.075-8.012,1.528
	s-7.006-3.037-8.991,1.135c-1.985,4.173-5.647,4.4-8.14,0.512s-6.57-3.891-9.062,0c-2.493,3.891-6.156,3.661-8.14-0.512
	c-1.985-4.172-6.031-4.682-8.992-1.135c-2.959,3.547-6.565,2.859-8.012-1.528c-1.445-4.388-5.396-5.403-8.777-2.255
	c-3.381,3.149-6.873,2.015-7.757-2.521c-0.884-4.533-4.677-6.035-8.427-3.335c-3.749,2.7-7.071,1.138-7.38-3.473
	c-0.309-4.611-3.882-6.574-7.941-4.365c-4.058,2.208-7.157,0.242-6.887-4.37c0.271-4.611-3.028-7.01-7.331-5.326
	c-4.303,1.685-7.131-0.656-6.285-5.199c0.847-4.541-2.126-7.334-6.606-6.203c-4.479,1.13-6.992-1.545-5.583-5.945
	c1.41-4.4-1.19-7.544-5.776-6.982c-4.587,0.56-6.745-2.41-4.795-6.599c1.95-4.19-0.236-7.633-4.856-7.651
	c-4.621-0.02-6.389-3.236-3.93-7.146c2.459-3.913,0.723-7.604-3.858-8.2c-4.582-0.599-5.933-4.012-3.002-7.585
	c2.931-3.572,1.67-7.451-2.8-8.619c-4.471-1.168-5.383-4.724-2.029-7.9c3.355-3.176,2.591-7.183-1.698-8.901
	c-4.289-1.72-4.75-5.36-1.022-8.091c3.727-2.732,3.47-6.803-0.569-9.045c-4.039-2.243-4.039-5.916,0-8.157
	c4.04-2.243,4.296-6.312,0.569-9.044c-3.728-2.731-3.267-6.373,1.022-8.091c4.289-1.721,5.053-5.726,1.698-8.903
	c-3.354-3.178-2.441-6.732,2.029-7.9c4.47-1.169,5.731-5.046,2.8-8.62c-2.931-3.572-1.579-6.985,3.002-7.583
	c4.581-0.599,6.318-4.289,3.858-8.201c-2.459-3.911-0.691-7.127,3.93-7.147c4.62-0.019,6.806-3.462,4.856-7.651
	c-1.95-4.188,0.208-7.157,4.795-6.599c4.586,0.561,7.186-2.582,5.776-6.982c-1.409-4.4,1.104-7.076,5.583-5.946
	c4.48,1.13,7.453-1.661,6.606-6.204c-0.846-4.542,1.982-6.881,6.285-5.199c4.303,1.683,7.602-0.713,7.331-5.326
	c-0.27-4.612,2.829-6.579,6.887-4.37c4.059,2.209,7.632,0.244,7.941-4.366c0.309-4.611,3.631-6.174,7.38-3.474
	c3.75,2.7,7.542,1.199,8.427-3.336c0.884-4.535,4.375-5.669,7.757-2.521c3.381,3.148,7.332,2.135,8.777-2.254
	c1.447-4.388,5.053-5.075,8.012-1.527c2.96,3.548,7.006,3.036,8.992-1.136C134.444,8.235,138.107,8.005,140.6,11.895z"/>
<linearGradient id="SVGID_1_" gradientUnits="userSpaceOnUse" x1="297.2002" y1="-233.9043" x2="572.5713" y2="-233.9043" gradientTransform="matrix(1 0 0 -1 -290 -84)">
	<stop  offset="0" style="stop-color:#E6E6E6"/>
	<stop  offset="1" style="stop-color:#CCCCCC"/>
</linearGradient>
<path fill="url(#SVGID_1_)" d="M140.429,15.21c2.451,3.826,6.461,3.826,8.912,0c2.451-3.826,6.054-3.599,8.007,0.504
	c1.951,4.103,5.93,4.605,8.84,1.117c2.912-3.488,6.457-2.812,7.879,1.503s5.306,5.312,8.631,2.216
	c3.324-3.096,6.758-1.98,7.628,2.479s4.599,5.936,8.286,3.28c3.688-2.654,6.953-1.118,7.258,3.416
	c0.304,4.534,3.818,6.465,7.809,4.293c3.992-2.172,7.039-0.238,6.772,4.297c-0.267,4.536,2.979,6.893,7.21,5.238
	c4.23-1.655,7.012,0.646,6.18,5.113s2.092,7.212,6.497,6.1c4.406-1.111,6.876,1.521,5.49,5.848
	c-1.386,4.327,1.171,7.417,5.681,6.867c4.51-0.55,6.633,2.37,4.715,6.489c-1.918,4.119,0.23,7.505,4.775,7.524
	c4.543,0.019,6.283,3.182,3.863,7.028c-2.418,3.847-0.711,7.476,3.795,8.064c4.506,0.589,5.834,3.945,2.953,7.458
	c-2.883,3.513-1.644,7.327,2.754,8.476c4.396,1.149,5.294,4.645,1.994,7.77c-3.299,3.124-2.547,7.063,1.67,8.754
	c4.218,1.69,4.67,5.271,1.005,7.957s-3.413,6.688,0.56,8.894s3.973,5.816,0,8.022c-3.972,2.204-4.224,6.206-0.56,8.894
	c3.666,2.688,3.213,6.267-1.005,7.957c-4.217,1.691-4.969,5.631-1.67,8.754c3.3,3.125,2.401,6.621-1.994,7.771
	c-4.396,1.147-5.637,4.962-2.754,8.476c2.882,3.514,1.553,6.869-2.953,7.457c-4.506,0.59-6.213,4.217-3.795,8.064
	c2.42,3.847,0.681,7.009-3.863,7.029c-4.544,0.019-6.693,3.402-4.775,7.522c1.916,4.119-0.205,7.039-4.715,6.488
	c-4.51-0.552-7.066,2.539-5.681,6.866c1.386,4.328-1.084,6.959-5.49,5.849c-4.405-1.11-7.329,1.634-6.497,6.101
	s-1.949,6.769-6.18,5.112c-4.23-1.655-7.477,0.701-7.21,5.237s-2.781,6.47-6.772,4.298c-3.99-2.172-7.505-0.239-7.809,4.294
	c-0.305,4.532-3.57,6.069-7.258,3.413c-3.688-2.653-7.416-1.179-8.286,3.281c-0.871,4.459-4.304,5.575-7.628,2.479
	c-3.325-3.096-7.209-2.098-8.631,2.218c-1.422,4.314-4.967,4.99-7.879,1.504c-2.91-3.489-6.89-2.986-8.84,1.115
	c-1.953,4.104-5.556,4.328-8.007,0.502c-2.45-3.824-6.46-3.824-8.912,0c-2.451,3.826-6.053,3.602-8.005-0.502
	c-1.952-4.103-5.931-4.604-8.842-1.115c-2.91,3.486-6.456,2.812-7.878-1.504c-1.422-4.314-5.306-5.312-8.631-2.218
	c-3.325,3.097-6.758,1.98-7.628-2.479c-0.87-4.46-4.599-5.937-8.286-3.281c-3.688,2.656-6.954,1.119-7.258-3.413
	c-0.304-4.533-3.818-6.466-7.809-4.294c-3.991,2.172-7.039,0.238-6.772-4.298c0.267-4.536-2.978-6.893-7.209-5.237
	c-4.231,1.656-7.012-0.646-6.18-5.112s-2.091-7.211-6.497-6.101c-4.406,1.11-6.876-1.521-5.49-5.849
	c1.386-4.327-1.17-7.418-5.68-6.866c-4.511,0.551-6.632-2.369-4.715-6.488c1.917-4.12-0.232-7.505-4.776-7.522
	c-4.543-0.021-6.283-3.184-3.864-7.029c2.419-3.848,0.711-7.477-3.794-8.064c-4.506-0.588-5.834-3.943-2.952-7.457
	s1.642-7.328-2.754-8.476c-4.397-1.149-5.294-4.646-1.995-7.771c3.299-3.123,2.547-7.062-1.67-8.754
	c-4.218-1.69-4.67-5.271-1.006-7.957c3.666-2.688,3.414-6.688-0.559-8.894c-3.972-2.206-3.972-5.816,0-8.022
	c3.973-2.206,4.225-6.208,0.559-8.894c-3.665-2.687-3.212-6.267,1.006-7.957c4.217-1.69,4.969-5.63,1.67-8.754
	c-3.299-3.125-2.402-6.621,1.995-7.77c4.396-1.149,5.636-4.962,2.754-8.476c-2.882-3.513-1.554-6.869,2.952-7.458
	c4.505-0.589,6.213-4.218,3.794-8.064c-2.418-3.846-0.679-7.009,3.864-7.028c4.544-0.019,6.693-3.405,4.776-7.524
	c-1.917-4.119,0.204-7.039,4.715-6.489c4.51,0.55,7.066-2.54,5.68-6.867c-1.386-4.327,1.084-6.958,5.49-5.848
	c4.406,1.112,7.329-1.633,6.497-6.1s1.949-6.768,6.18-5.113c4.231,1.655,7.476-0.702,7.209-5.238
	c-0.267-4.536,2.781-6.469,6.772-4.297c3.991,2.172,7.505,0.241,7.809-4.293c0.304-4.534,3.57-6.07,7.258-3.416
	c3.687,2.655,7.417,1.179,8.286-3.28c0.87-4.459,4.303-5.575,7.628-2.479c3.325,3.097,7.209,2.099,8.631-2.216
	s4.968-4.991,7.878-1.503c2.911,3.489,6.89,2.986,8.842-1.117C134.376,11.611,137.978,11.384,140.429,15.21z"/>
<linearGradient id="SVGID_2_" gradientUnits="userSpaceOnUse" x1="309.4707" y1="-232.02" x2="561.7559" y2="-232.02" gradientTransform="matrix(1 0 0 -1 -290 -84)">
	<stop  offset="0" style="stop-color:#52606B"/>
	<stop  offset="1" style="stop-color:#32393F"/>
</linearGradient>
<circle fill="url(#SVGID_2_)" cx="145.613" cy="148.02" r="126.143"/>
<circle fill="#E6E6E6" cx="145.613" cy="148.021" r="81.774"/>
<linearGradient id="SVGID_3_" gradientUnits="userSpaceOnUse" x1="376.2695" y1="-229.9067" x2="489.126" y2="-229.9067" gradientTransform="matrix(1 0 0 -1 -290 -84)">
	<stop  offset="0" style="stop-color:#52606B"/>
	<stop  offset="1" style="stop-color:#32393F"/>
</linearGradient>
<path fill="url(#SVGID_3_)" d="M107.449,152.749l9.668-45.838h11.514v77.991h-10.428l1.086-51.055l-7.821,36.932h-8.037
	l-7.821-36.932l1.086,51.055H86.27v-77.991h11.513L107.449,152.749z M134.604,175.45h6.843c3.115,0,4.671-1.882,4.671-5.646v-62.894
	h10.43v64.846c0,8.765-4.021,13.146-12.059,13.146h-9.885V175.45z M166.322,184.902v-77.991h18.14
	c9.776,0,14.664,4.995,14.664,14.988v51.705c0,7.531-4.166,11.299-12.492,11.299H166.322L166.322,184.902z M176.75,175.45h7.82
	c2.753,0,4.128-1.157,4.128-3.476V122.01c0-3.766-1.56-5.649-4.671-5.649h-7.277V175.45z"/>
<linearGradient id="SVGID_4_" gradientUnits="userSpaceOnUse" x1="427.2715" y1="-291.5898" x2="440.1426" y2="-291.5898" gradientTransform="matrix(1 0 0 -1 -290 -84)">
	<stop  offset="0" style="stop-color:#52606B"/>
	<stop  offset="1" style="stop-color:#32393F"/>
</linearGradient>
<circle fill="url(#SVGID_4_)" cx="143.707" cy="207.59" r="6.436"/>
<linearGradient id="SVGID_5_" gradientUnits="userSpaceOnUse" x1="427.2715" y1="-169.1592" x2="440.1426" y2="-169.1592" gradientTransform="matrix(1 0 0 -1 -290 -84)">
	<stop  offset="0" style="stop-color:#52606B"/>
	<stop  offset="1" style="stop-color:#32393F"/>
</linearGradient>
<circle fill="url(#SVGID_5_)" cx="143.707" cy="85.159" r="6.436"/>
<linearGradient id="SVGID_6_" gradientUnits="userSpaceOnUse" x1="313.9453" y1="-189.3174" x2="558.2695" y2="-189.3174" gradientTransform="matrix(1 0 0 -1 -290 -84)">
	<stop  offset="0" style="stop-color:#E6E6E6"/>
	<stop  offset="0.3558" style="stop-color:#F2F2F2"/>
	<stop  offset="1" style="stop-color:#FFFFFF;stop-opacity:0.25"/>
</linearGradient>
<path opacity="0.16" fill="url(#SVGID_6_)" enable-background="new    " d="M262.009,186.105
	c9.392-28.348,8.548-60.167-4.786-89.499c-28.096-61.799-100.97-89.122-162.77-61.026C55.512,53.285,30.267,88.77,23.945,128.058
	C114.317,132.044,196.689,153.209,262.009,186.105z"/>
<path fill="none" d="M128.177,41.941c53.103-8.755,103.483,28.612,112.531,83.459c9.04,54.851-26.679,106.411-79.78,115.168
	c-53.104,8.754-103.484-28.609-112.527-83.459C39.356,102.261,75.072,50.702,128.177,41.941z"/>
<g enable-background="new    ">
	<path fill="#E2E2E2" d="M44.27,185.573c-0.518,0.199-1.023,0.285-1.518,0.258c-0.495-0.026-0.956-0.148-1.383-0.363
		s-0.811-0.511-1.151-0.888c-0.341-0.377-0.609-0.819-0.804-1.325c-0.195-0.507-0.292-1.01-0.289-1.512
		c0.002-0.501,0.089-0.976,0.261-1.421c0.173-0.446,0.434-0.845,0.782-1.197c0.349-0.352,0.781-0.628,1.299-0.827
		c0.503-0.194,1.003-0.277,1.498-0.25c0.495,0.026,0.955,0.147,1.383,0.363c0.426,0.215,0.809,0.508,1.147,0.878
		c0.337,0.37,0.604,0.808,0.8,1.314c0.194,0.506,0.292,1.014,0.293,1.522c0,0.508-0.086,0.985-0.258,1.431
		c-0.173,0.445-0.433,0.845-0.782,1.197C45.2,185.105,44.773,185.379,44.27,185.573z"/>
</g>
<g enable-background="new    ">
	<path fill="#E2E2E2" d="M49.708,208.221l4.136-3.092c0.332-0.238,0.674-0.484,1.025-0.734c0.351-0.252,0.72-0.494,1.105-0.73
		l-0.023-0.039c-0.472,0.096-0.958,0.168-1.457,0.218c-0.5,0.05-0.979,0.093-1.438,0.126l-5.783,0.363l-0.732-1.194l2.937-5.008
		c0.237-0.394,0.491-0.796,0.761-1.208c0.269-0.412,0.549-0.813,0.84-1.205l-0.023-0.038c-0.398,0.243-0.785,0.464-1.162,0.659
		s-0.741,0.383-1.092,0.563l-4.62,2.302l-1.76-2.871l12.552-6.235l1.488,2.428l-3.358,5.743c-0.239,0.394-0.521,0.854-0.847,1.381
		c-0.328,0.527-0.639,0.996-0.935,1.406l0.023,0.039c0.493-0.09,1.022-0.168,1.59-0.232c0.567-0.064,1.123-0.115,1.667-0.147
		l6.629-0.405l1.5,2.447l-11.229,8.393L49.708,208.221z"/>
</g>
<g enable-background="new    ">
	<path fill="#E2E2E2" d="M60.23,221.525l1.477-2.751l-3.085-3.605l-2.932,1.051l-2.146-2.507l14.378-4.838l1.572,1.838
		l-7.002,13.457L60.23,221.525z M64.546,213.847c0.105-0.19,0.228-0.394,0.368-0.612c0.14-0.218,0.279-0.438,0.419-0.655
		l-0.029-0.034c-0.229,0.114-0.463,0.222-0.705,0.32c-0.243,0.099-0.466,0.185-0.669,0.261l-2.804,1.031l1.969,2.301L64.546,213.847
		z"/>
</g>
<g enable-background="new    ">
	<path fill="#E2E2E2" d="M77.415,222.626l-7.549,8.337l-2.597-2.351l7.564-8.354L71.6,217.33l1.806-1.994l9.046,8.191l-1.821,2.012
		L77.415,222.626z"/>
</g>
<g enable-background="new    ">
	<path fill="#E2E2E2" d="M87.605,230.516l-6.49,9.186l-2.861-2.02l6.502-9.205l-3.562-2.518l1.553-2.197l9.968,7.041l-1.565,2.217
		L87.605,230.516z"/>
</g>
<g enable-background="new    ">
	<path fill="#E2E2E2" d="M95.549,247.976c-0.586,0.537-1.204,0.922-1.855,1.155c-0.651,0.233-1.315,0.341-1.991,0.324
		s-1.333-0.13-1.97-0.34l-0.288-2.773c0.993,0.31,1.868,0.292,2.625-0.051c0.758-0.343,1.448-1.125,2.07-2.347l4.933-9.692
		l3.122,1.589l-5.072,9.965C96.66,246.716,96.135,247.439,95.549,247.976z"/>
</g>
<g enable-background="new    ">
	<path fill="#E2E2E2" d="M108.166,253.452l-0.012-3.122l-4.431-1.702l-2.078,2.319l-3.08-1.183l10.341-11.1l2.258,0.867
		l0.251,15.169L108.166,253.452z M108.304,244.645c0.003-0.217,0.014-0.455,0.032-0.714s0.038-0.517,0.057-0.775l-0.043-0.017
		c-0.146,0.211-0.301,0.416-0.468,0.617c-0.166,0.203-0.321,0.385-0.464,0.549l-1.975,2.242l2.827,1.086L108.304,244.645z"/>
</g>
<g enable-background="new    ">
	<path fill="#E2E2E2" d="M128.421,258.59l0.554-5.135c0.05-0.406,0.104-0.823,0.159-1.251c0.056-0.428,0.128-0.863,0.218-1.307
		l-0.044-0.009c-0.252,0.411-0.531,0.815-0.833,1.216c-0.304,0.4-0.6,0.779-0.887,1.138l-3.672,4.482l-1.374-0.278l-1.666-5.56
		c-0.126-0.442-0.249-0.901-0.367-1.38c-0.119-0.479-0.222-0.957-0.309-1.436l-0.046-0.01c-0.093,0.458-0.194,0.892-0.309,1.3
		c-0.113,0.409-0.223,0.804-0.331,1.183l-1.461,4.951l-3.301-0.666l3.982-13.438l2.792,0.563l1.918,6.37
		c0.126,0.442,0.27,0.962,0.434,1.561c0.163,0.599,0.295,1.146,0.395,1.643l0.044,0.009c0.269-0.422,0.574-0.862,0.913-1.322
		s0.681-0.9,1.028-1.321l4.218-5.131l2.813,0.568l-1.501,13.938L128.421,258.59z"/>
</g>
<g enable-background="new    ">
	<path fill="#E2E2E2" d="M135.978,259.439l0.666-13.944l8.397,0.401l-0.133,2.775l-4.898-0.234l-0.132,2.776l3.996,0.19
		l-0.135,2.819l-3.996-0.191l-0.133,2.799l5.531,0.264l-0.133,2.775L135.978,259.439z"/>
</g>
<g enable-background="new    ">
	<path fill="#E2E2E2" d="M157.379,255.026c0.088,1.366-0.295,2.489-1.144,3.367c-0.851,0.879-2.162,1.375-3.937,1.488
		c-0.902,0.058-1.729,0.007-2.479-0.149s-1.399-0.407-1.95-0.753l-0.523-3.232c1.457,0.988,2.999,1.432,4.63,1.327
		c0.648-0.041,1.139-0.194,1.471-0.457s0.484-0.604,0.457-1.027c-0.025-0.409-0.205-0.734-0.539-0.977
		c-0.334-0.243-0.956-0.488-1.865-0.738c-1.295-0.342-2.291-0.867-2.988-1.577s-1.076-1.546-1.137-2.509
		c-0.038-0.583,0.04-1.141,0.232-1.674c0.192-0.531,0.488-1.004,0.885-1.418s0.896-0.749,1.5-1.007
		c0.604-0.259,1.303-0.413,2.102-0.465c0.902-0.058,1.642-0.017,2.218,0.123c0.575,0.138,1.028,0.299,1.356,0.482l-0.09,2.856
		c-0.359-0.19-0.812-0.358-1.358-0.501c-0.546-0.145-1.105-0.198-1.678-0.161c-0.634,0.04-1.089,0.187-1.367,0.438
		c-0.279,0.251-0.408,0.544-0.387,0.877c0.021,0.334,0.193,0.608,0.517,0.821c0.322,0.214,0.922,0.43,1.797,0.652
		c0.583,0.152,1.129,0.354,1.635,0.606c0.508,0.251,0.949,0.557,1.326,0.911c0.378,0.354,0.684,0.758,0.916,1.21
		C157.211,253.995,157.345,254.489,157.379,255.026z"/>
</g>
<g enable-background="new    ">
	<path fill="#E2E2E2" d="M177.455,248.049c0.265,1.061,0.299,2.061,0.105,2.996s-0.562,1.777-1.104,2.529s-1.229,1.396-2.058,1.933
		c-0.828,0.538-1.747,0.933-2.756,1.184l-4.715,1.174l-3.374-13.547l4.715-1.174c1.009-0.251,2.005-0.334,2.988-0.249
		c0.984,0.086,1.893,0.334,2.725,0.743c0.831,0.409,1.552,0.981,2.162,1.717C176.753,246.09,177.191,246.987,177.455,248.049z
		 M174.056,248.896c-0.162-0.651-0.425-1.194-0.79-1.631c-0.364-0.435-0.793-0.767-1.285-0.999c-0.491-0.229-1.029-0.359-1.61-0.387
		s-1.18,0.033-1.793,0.187l-1.053,0.262l1.968,7.899l1.053-0.262c0.613-0.153,1.171-0.378,1.671-0.676
		c0.501-0.297,0.914-0.663,1.24-1.099c0.326-0.435,0.55-0.926,0.669-1.475C174.245,250.168,174.222,249.561,174.056,248.896z"/>
</g>
<g enable-background="new    ">
	<path fill="#E2E2E2" d="M182.682,253.535l-5.075-13.006l7.832-3.056l1.011,2.589l-4.569,1.782l1.011,2.589l3.727-1.454l1.025,2.63
		l-3.727,1.454l1.019,2.608l5.158-2.013l1.011,2.59L182.682,253.535z"/>
</g>
<g enable-background="new    ">
	<path fill="#E2E2E2" d="M200.428,240.783c0.637,1.211,0.746,2.391,0.328,3.54c-0.416,1.149-1.412,2.136-2.986,2.963
		c-0.801,0.421-1.574,0.712-2.324,0.874c-0.748,0.163-1.443,0.199-2.086,0.109l-1.797-2.738c1.732,0.309,3.322,0.083,4.768-0.676
		c0.576-0.303,0.961-0.643,1.156-1.018s0.195-0.75-0.002-1.125c-0.189-0.363-0.486-0.586-0.891-0.672
		c-0.404-0.085-1.072-0.056-2.004,0.088c-1.322,0.216-2.445,0.143-3.371-0.223c-0.926-0.363-1.613-0.973-2.062-1.826
		c-0.272-0.518-0.429-1.059-0.47-1.623s0.035-1.117,0.229-1.656c0.195-0.537,0.514-1.049,0.959-1.531
		c0.445-0.48,1.021-0.908,1.729-1.28c0.801-0.421,1.492-0.685,2.075-0.794c0.582-0.105,1.061-0.145,1.436-0.111l1.084,2.645
		c-0.408-0.027-0.889,0.006-1.446,0.098s-1.089,0.27-1.597,0.537c-0.562,0.295-0.918,0.614-1.07,0.957
		c-0.152,0.344-0.15,0.662,0.006,0.959s0.424,0.477,0.806,0.539s1.018,0.018,1.907-0.139c0.594-0.098,1.174-0.136,1.74-0.111
		c0.564,0.023,1.092,0.119,1.582,0.29c0.489,0.171,0.933,0.415,1.33,0.733C199.854,239.908,200.178,240.307,200.428,240.783z"/>
</g>
<g enable-background="new    ">
	<path fill="#E2E2E2" d="M205.141,242.711l-7.57-11.729l2.942-1.9l7.571,11.73L205.141,242.711z"/>
</g>
<g enable-background="new    ">
	<path fill="#E2E2E2" d="M217.652,234.084c-0.771,0.627-1.629,1.117-2.569,1.477s-1.896,0.537-2.868,0.535
		c-0.971-0.002-1.922-0.212-2.853-0.631s-1.773-1.094-2.526-2.022c-0.752-0.93-1.234-1.896-1.445-2.898
		c-0.211-1.002-0.217-1.978-0.018-2.929c0.2-0.951,0.566-1.844,1.102-2.68c0.534-0.837,1.17-1.554,1.907-2.151
		c0.784-0.636,1.544-1.115,2.28-1.438c0.736-0.324,1.398-0.519,1.986-0.582l1.663,2.482c-0.606,0.04-1.235,0.189-1.888,0.445
		s-1.289,0.636-1.907,1.137c-0.515,0.416-0.932,0.886-1.253,1.409c-0.32,0.522-0.525,1.069-0.615,1.638
		c-0.09,0.571-0.059,1.152,0.092,1.744s0.441,1.152,0.873,1.686c0.414,0.51,0.881,0.896,1.402,1.158
		c0.522,0.264,1.065,0.41,1.631,0.439c0.566,0.029,1.131-0.053,1.697-0.248c0.566-0.197,1.105-0.503,1.619-0.919
		c0.641-0.52,1.062-1.037,1.261-1.556l-1.239-1.53l-2.037,1.65l-1.639-2.023l4.529-3.671l4.05,4.998
		C220.522,231.141,219.443,232.633,217.652,234.084z"/>
</g>
<g enable-background="new    ">
	<path fill="#E2E2E2" d="M232.833,218.83l-8.174,0.154c-0.66,0.012-1.353,0.01-2.076-0.006s-1.39-0.035-1.999-0.059l-0.015,0.048
		c0.388,0.311,0.772,0.635,1.157,0.972c0.383,0.338,0.736,0.653,1.061,0.947l4.377,3.969l-2.354,2.595l-10.342-9.377l1.897-2.093
		l7.138-0.118c0.502-0.013,1.09-0.015,1.761-0.005c0.671,0.009,1.271,0.027,1.796,0.057l0.014-0.049
		c-0.646-0.525-1.305-1.091-1.975-1.699l-3.891-3.527l2.354-2.595l10.455,9.479L232.833,218.83z"/>
</g>
<g enable-background="new    ">
	<path fill="#E2E2E2" d="M236.386,214.022l-11.462-7.968l4.799-6.902l2.281,1.586l-2.799,4.026l2.281,1.586l2.283-3.284l2.317,1.611
		l-2.284,3.283l2.301,1.6l3.16-4.547l2.283,1.587L236.386,214.022z"/>
</g>
<g enable-background="new    ">
	<path fill="#E2E2E2" d="M247.285,196.365l-6.678,0.823l-0.589,1.095l4.837,2.601l-1.595,2.966l-12.296-6.61l2.547-4.737
		c0.293-0.544,0.658-1.015,1.095-1.413c0.438-0.397,0.916-0.7,1.435-0.909c0.518-0.209,1.068-0.303,1.652-0.279
		s1.165,0.189,1.743,0.501c0.732,0.394,1.267,0.925,1.604,1.593c0.336,0.668,0.479,1.341,0.431,2.016l7.666-1.088L247.285,196.365z
		 M237.842,193.367c-0.462-0.249-0.896-0.268-1.298-0.057c-0.404,0.211-0.713,0.515-0.928,0.913l-0.706,1.313l2.757,1.482
		l0.706-1.314c0.215-0.397,0.302-0.821,0.262-1.271C238.595,193.986,238.33,193.63,237.842,193.367z"/>
</g>
<g enable-background="new    ">
	<path fill="#E2E2E2" d="M249.217,175.426c0.525,0.178,0.969,0.437,1.331,0.774s0.64,0.726,0.83,1.165
		c0.188,0.438,0.295,0.911,0.315,1.42c0.02,0.508-0.059,1.019-0.232,1.531c-0.174,0.514-0.423,0.964-0.746,1.347
		c-0.322,0.384-0.694,0.691-1.111,0.924c-0.418,0.231-0.874,0.371-1.367,0.418c-0.493,0.048-1.002-0.019-1.527-0.196
		c-0.511-0.174-0.948-0.43-1.312-0.768c-0.362-0.338-0.639-0.727-0.829-1.165c-0.189-0.438-0.295-0.908-0.318-1.409
		c-0.022-0.5,0.055-1.008,0.229-1.521s0.424-0.966,0.75-1.356c0.325-0.391,0.696-0.702,1.114-0.935
		c0.417-0.232,0.873-0.371,1.366-0.418C248.203,175.189,248.705,175.252,249.217,175.426z"/>
</g>
<path fill="none" d="M213.671,76.397c40.761,37.392,43.332,100.917,5.75,141.896c-37.589,40.977-101.104,43.882-141.863,6.493
	c-40.759-37.39-43.336-100.917-5.75-141.894C109.396,41.914,172.908,39.008,213.671,76.397z"/>
<g enable-background="new    ">
	<path fill="#E6E6E6" d="M62.424,84.507c0.445,0.33,0.792,0.71,1.036,1.137c0.247,0.429,0.396,0.877,0.447,1.345
		c0.054,0.468,0.015,0.941-0.113,1.421c-0.128,0.48-0.35,0.932-0.664,1.356c-0.314,0.424-0.68,0.765-1.098,1.021
		c-0.417,0.257-0.855,0.428-1.319,0.514c-0.462,0.086-0.935,0.074-1.416-0.037c-0.48-0.109-0.944-0.33-1.39-0.66
		c-0.434-0.321-0.773-0.696-1.019-1.124c-0.246-0.428-0.395-0.876-0.448-1.345c-0.052-0.467-0.018-0.938,0.106-1.412
		c0.125-0.474,0.344-0.923,0.658-1.347c0.314-0.424,0.683-0.768,1.104-1.03s0.864-0.437,1.326-0.523
		c0.464-0.085,0.937-0.074,1.417,0.037C61.533,83.971,61.99,84.187,62.424,84.507z"/>
</g>
<g enable-background="new    ">
	<path fill="#E6E6E6" d="M81.374,73.674l-1.595,1.483l-5.7-3.126c-0.436-0.231-0.876-0.479-1.321-0.743
		c-0.445-0.263-0.936-0.564-1.47-0.903l-0.032,0.03c0.298,0.559,0.563,1.07,0.794,1.533c0.23,0.463,0.445,0.92,0.645,1.372
		l2.704,5.912l-1.595,1.483l-12.996-7.097l2.4-2.231l5.181,2.891c0.396,0.21,0.795,0.44,1.2,0.692
		c0.404,0.251,0.822,0.534,1.255,0.849l0.032-0.03c-0.272-0.465-0.519-0.902-0.74-1.313c-0.222-0.411-0.429-0.827-0.619-1.247
		l-2.49-5.392l2.159-2.007l5.166,2.875c0.344,0.197,0.73,0.436,1.16,0.714c0.429,0.278,0.86,0.564,1.294,0.858l0.032-0.03
		c-0.273-0.444-0.522-0.884-0.748-1.321c-0.226-0.437-0.43-0.85-0.612-1.239l-2.474-5.407l2.239-2.082L81.374,73.674z"/>
</g>
<g enable-background="new    ">
	<path fill="#E6E6E6" d="M85.635,70.239l-7.933-11.487l6.733-4.649l1.579,2.286l-3.927,2.712l1.578,2.287l3.204-2.212l1.604,2.322
		L85.27,63.71l1.592,2.305l4.435-3.062l1.579,2.287L85.635,70.239z"/>
</g>
<g enable-background="new    ">
	<path fill="#E6E6E6" d="M100.765,55.962c0.327,0.604,0.506,1.197,0.542,1.786c0.034,0.586-0.053,1.148-0.263,1.685
		c-0.21,0.537-0.522,1.029-0.938,1.479c-0.416,0.449-0.914,0.831-1.494,1.145l-4.661,2.525l-6.649-12.275l4.139-2.243
		c0.477-0.258,0.977-0.429,1.499-0.513c0.521-0.084,1.024-0.079,1.509,0.015c0.485,0.095,0.933,0.292,1.346,0.591
		c0.412,0.3,0.754,0.699,1.025,1.199c0.097,0.18,0.178,0.384,0.245,0.614c0.066,0.23,0.104,0.463,0.115,0.697
		c0.01,0.234-0.004,0.463-0.043,0.683c-0.04,0.22-0.118,0.42-0.237,0.602c0.3-0.064,0.634-0.062,1.003,0.003
		c0.369,0.065,0.729,0.186,1.083,0.358c0.353,0.175,0.688,0.399,1.004,0.676C100.304,55.266,100.564,55.591,100.765,55.962z
		 M94.196,53.026c-0.243-0.449-0.556-0.695-0.938-0.737c-0.381-0.042-0.746,0.031-1.094,0.22l-0.948,0.513l1.345,2.482l0.948-0.513
		c0.348-0.189,0.61-0.452,0.787-0.788C94.473,53.868,94.439,53.475,94.196,53.026z M97.864,57.534
		c-0.292-0.539-0.696-0.838-1.213-0.899c-0.517-0.06-1.006,0.036-1.471,0.288l-1.431,0.775l1.72,3.175l1.431-0.775
		c0.232-0.126,0.44-0.28,0.625-0.463s0.325-0.384,0.424-0.603c0.098-0.219,0.145-0.456,0.14-0.711
		C98.085,58.066,98.01,57.804,97.864,57.534z"/>
</g>
<g enable-background="new    ">
	<path fill="#E6E6E6" d="M117.884,43.956c0.198,0.627,0.26,1.227,0.188,1.8c-0.072,0.574-0.254,1.098-0.543,1.571
		s-0.666,0.887-1.131,1.24c-0.466,0.353-0.984,0.62-1.558,0.801l-1.783,0.562l1.652,5.237l-3.126,0.986l-4.199-13.313l4.909-1.549
		c0.573-0.181,1.151-0.259,1.734-0.238c0.584,0.023,1.129,0.143,1.636,0.357c0.506,0.215,0.953,0.537,1.342,0.964
		C117.394,42.804,117.687,43.33,117.884,43.956z M114.779,44.936c-0.157-0.5-0.45-0.817-0.877-0.949
		c-0.426-0.134-0.849-0.134-1.268-0.002l-1.322,0.417l0.941,2.983l1.321-0.417c0.42-0.132,0.767-0.371,1.042-0.718
		C114.892,45.903,114.946,45.465,114.779,44.936z"/>
</g>
<g enable-background="new    ">
	<path fill="#E6E6E6" d="M136.234,43.344c0.181,1.108,0.134,2.143-0.14,3.104c-0.274,0.962-0.708,1.812-1.3,2.552
		c-0.593,0.739-1.31,1.353-2.152,1.837c-0.842,0.483-1.741,0.804-2.696,0.96s-1.909,0.137-2.862-0.054
		c-0.952-0.191-1.823-0.546-2.613-1.06c-0.79-0.515-1.467-1.184-2.032-2.009c-0.566-0.824-0.938-1.79-1.119-2.898
		c-0.179-1.094-0.131-2.122,0.143-3.083c0.274-0.961,0.704-1.807,1.291-2.538c0.587-0.731,1.301-1.339,2.143-1.824
		c0.842-0.484,1.741-0.805,2.696-0.961s1.909-0.137,2.862,0.055c0.953,0.192,1.827,0.541,2.623,1.047
		c0.795,0.506,1.476,1.171,2.041,1.995C135.683,41.29,136.055,42.25,136.234,43.344z M132.825,43.899
		c-0.105-0.647-0.312-1.212-0.622-1.694c-0.309-0.482-0.686-0.878-1.13-1.19c-0.444-0.312-0.926-0.529-1.444-0.653
		c-0.518-0.122-1.037-0.14-1.558-0.055c-0.521,0.085-1.007,0.267-1.459,0.547c-0.452,0.282-0.835,0.64-1.151,1.076
		c-0.315,0.436-0.543,0.931-0.683,1.486s-0.156,1.156-0.05,1.804c0.105,0.647,0.313,1.216,0.623,1.705
		c0.31,0.489,0.683,0.89,1.121,1.203c0.438,0.314,0.915,0.532,1.433,0.654s1.037,0.141,1.558,0.056s1.008-0.268,1.459-0.548
		c0.452-0.28,0.84-0.639,1.162-1.077c0.322-0.437,0.553-0.937,0.692-1.499C132.915,45.152,132.931,44.547,132.825,43.899z"/>
</g>
<g enable-background="new    ">
	<path fill="#E6E6E6" d="M148.191,50.125l-3.839-5.452l-1.209,0.012l0.057,5.492l-3.277,0.034l-0.144-13.959l5.234-0.054
		c0.601-0.006,1.174,0.086,1.719,0.277c0.544,0.192,1.027,0.464,1.448,0.817c0.422,0.353,0.76,0.791,1.016,1.313
		c0.254,0.522,0.385,1.112,0.393,1.769c0.008,0.831-0.193,1.555-0.605,2.172s-0.916,1.067-1.516,1.35l4.53,6.19L148.191,50.125z
		 M146.311,40.408c-0.006-0.525-0.193-0.914-0.562-1.165c-0.369-0.251-0.773-0.375-1.213-0.371l-1.452,0.015l0.032,3.129
		l1.452-0.015c0.44-0.004,0.841-0.132,1.205-0.384C146.137,41.365,146.315,40.962,146.311,40.408z"/>
</g>
<g enable-background="new    ">
	<path fill="#E6E6E6" d="M161.365,39.927l-1.354,11.165l-3.385-0.41l1.356-11.186l-4.214-0.511l0.324-2.672l11.791,1.43
		l-0.326,2.693L161.365,39.927z"/>
</g>
<g enable-background="new    ">
	<path fill="#E6E6E6" d="M172.18,42.038l-0.655,2.7l3.976,0.966l-0.666,2.743l-3.976-0.966l-1.317,5.421l-3.312-0.805l3.295-13.564
		l8.144,1.978l-0.655,2.7L172.18,42.038z"/>
</g>
<g enable-background="new    ">
	<path fill="#E6E6E6" d="M192.709,53.474c-0.415,1.044-0.987,1.908-1.716,2.591c-0.729,0.684-1.538,1.19-2.427,1.521
		c-0.888,0.33-1.817,0.487-2.789,0.469c-0.972-0.017-1.907-0.204-2.807-0.561s-1.708-0.863-2.428-1.517
		c-0.718-0.653-1.283-1.404-1.697-2.251c-0.412-0.847-0.65-1.769-0.711-2.767c-0.062-0.997,0.114-2.018,0.529-3.062
		c0.408-1.03,0.979-1.887,1.708-2.57c0.728-0.684,1.532-1.188,2.411-1.515c0.879-0.326,1.805-0.48,2.775-0.463
		c0.973,0.017,1.908,0.204,2.807,0.561c0.9,0.357,1.709,0.863,2.427,1.517c0.72,0.654,1.289,1.403,1.712,2.246
		c0.422,0.843,0.664,1.762,0.727,2.76C193.291,51.43,193.117,52.443,192.709,53.474z M189.498,52.199
		c0.242-0.61,0.356-1.201,0.338-1.773c-0.017-0.571-0.136-1.105-0.357-1.602c-0.221-0.495-0.522-0.93-0.904-1.3
		c-0.381-0.371-0.815-0.654-1.307-0.849c-0.491-0.195-1.002-0.288-1.534-0.279s-1.046,0.119-1.54,0.33
		c-0.494,0.212-0.944,0.52-1.348,0.924c-0.406,0.404-0.73,0.912-0.973,1.521c-0.242,0.61-0.355,1.205-0.34,1.783
		c0.013,0.579,0.128,1.115,0.342,1.607c0.215,0.494,0.513,0.926,0.895,1.297c0.381,0.371,0.816,0.653,1.308,0.849
		c0.491,0.195,1.001,0.288,1.533,0.279c0.532-0.009,1.049-0.117,1.55-0.327c0.502-0.208,0.956-0.519,1.363-0.93
		C188.933,53.32,189.256,52.81,189.498,52.199z"/>
</g>
<g enable-background="new    ">
	<path fill="#E6E6E6" d="M192.354,61.338l6.948-12.109l2.957,1.697l-5.499,9.584l4.883,2.802l-1.448,2.524L192.354,61.338z"/>
</g>
<g enable-background="new    ">
	<path fill="#E6E6E6" d="M202.137,67.255l8.03-11.419l2.789,1.961l-8.03,11.419L202.137,67.255z"/>
</g>
<g enable-background="new    ">
	<path fill="#E6E6E6" d="M223.283,75.551c-0.746,0.84-1.578,1.458-2.496,1.852c-0.918,0.394-1.852,0.595-2.8,0.602
		c-0.946,0.008-1.874-0.162-2.782-0.509c-0.906-0.347-1.723-0.842-2.446-1.485c-0.724-0.642-1.312-1.393-1.765-2.253
		s-0.728-1.759-0.828-2.695c-0.1-0.938-0.008-1.885,0.273-2.844c0.283-0.958,0.797-1.858,1.543-2.698
		c0.736-0.829,1.563-1.44,2.481-1.835c0.919-0.394,1.847-0.594,2.784-0.601c0.938-0.007,1.859,0.163,2.768,0.51
		c0.907,0.347,1.723,0.842,2.447,1.484c0.723,0.643,1.312,1.394,1.764,2.253c0.452,0.86,0.733,1.759,0.843,2.694
		c0.11,0.937,0.024,1.884-0.258,2.843C224.528,73.828,224.02,74.722,223.283,75.551z M220.701,73.259
		c0.436-0.491,0.742-1.009,0.921-1.553c0.18-0.543,0.249-1.086,0.21-1.627c-0.039-0.542-0.174-1.052-0.406-1.531
		c-0.231-0.479-0.545-0.894-0.939-1.244c-0.395-0.351-0.844-0.613-1.346-0.786c-0.504-0.173-1.023-0.244-1.561-0.214
		c-0.537,0.031-1.065,0.167-1.583,0.409c-0.519,0.242-0.997,0.608-1.433,1.099c-0.436,0.491-0.744,1.011-0.928,1.561
		c-0.185,0.548-0.259,1.091-0.227,1.628c0.034,0.538,0.166,1.045,0.398,1.523c0.231,0.479,0.545,0.894,0.94,1.244
		c0.395,0.35,0.843,0.612,1.346,0.786s1.025,0.247,1.568,0.222c0.542-0.026,1.076-0.162,1.599-0.41
		C219.785,74.118,220.266,73.75,220.701,73.259z"/>
</g>
<g enable-background="new    ">
	<path fill="#E6E6E6" d="M233.172,89.501c-0.443,0.333-0.905,0.557-1.386,0.669c-0.481,0.114-0.953,0.128-1.416,0.046
		c-0.464-0.083-0.907-0.255-1.33-0.515c-0.424-0.26-0.793-0.601-1.11-1.022c-0.317-0.423-0.539-0.87-0.666-1.343
		c-0.127-0.474-0.166-0.944-0.116-1.412c0.05-0.468,0.196-0.917,0.438-1.347c0.242-0.429,0.586-0.811,1.029-1.144
		c0.432-0.324,0.887-0.542,1.368-0.656c0.479-0.113,0.952-0.128,1.415-0.046c0.464,0.083,0.904,0.251,1.324,0.506
		c0.418,0.254,0.786,0.592,1.104,1.015c0.316,0.422,0.541,0.872,0.672,1.351c0.133,0.479,0.173,0.953,0.123,1.421
		s-0.195,0.917-0.438,1.347C233.94,88.8,233.603,89.177,233.172,89.501z"/>
</g>
</svg>
