<?xml version="1.0" encoding="utf-8"?>
<!-- Generator: Adobe Illustrator 14.0.0, SVG Export Plug-In . SVG Version: 6.00 Build 43363)  -->
<!DOCTYPE svg PUBLIC "-//W3C//DTD SVG 1.1//EN" "http://www.w3.org/Graphics/SVG/1.1/DTD/svg11.dtd">
<svg version="1.1" id="Layer_1" xmlns="http://www.w3.org/2000/svg" xmlns:xlink="http://www.w3.org/1999/xlink" x="0px" y="0px"
	 width="154.878px" height="171.953px" viewBox="0 0 154.878 171.953" enable-background="new 0 0 154.878 171.953"
	 xml:space="preserve">
<g>
	<path fill="none" d="M38.546,25.935v-3.266h0.783V50.39c1.452-1.484,2.352-3.512,2.352-5.748l2.353-36.604H43.25v0.393v2.873
		H31.256"/>
	<path fill="none" d="M27.337,52.873h6.114c2.302,0,4.384-0.955,5.878-2.482V22.669h-0.783v3.266"/>
	<path fill="none" d="M39.329,59.273v-5.84c-1.683,1.129-3.704,1.791-5.878,1.791h-6.114"/>
	<rect x="31.256" y="8.431" fill="#434242" width="11.993" height="2.873"/>
	<path fill="#434242" d="M46.377,6.845l-0.019-1.158h-3.109v2.352h0.783L41.68,44.643c0,2.236-0.898,4.264-2.352,5.748v3.043
		c2.835-1.9,4.703-5.131,4.703-8.791L46.383,7.02C46.384,6.962,46.381,6.908,46.377,6.845z"/>
	<path fill="#434242" d="M33.451,52.873h-6.114v2.352h6.114c2.174,0,4.195-0.662,5.878-1.791V50.39
		C37.835,51.917,35.753,52.873,33.451,52.873z"/>
	<path fill="#401E10" d="M31.256,11.304"/>
	<path fill="#401E10" d="M27.337,55.224"/>
	<line fill="none" x1="31.256" y1="11.304" x2="31.256" y2="8.431"/>
	<line fill="none" x1="27.337" y1="55.224" x2="27.337" y2="52.873"/>
</g>
<g>
	<path fill="none" d="M17.932,25.935v-3.266h-0.784L16.365,50.39c-1.452-1.484-2.353-3.512-2.353-5.748l5.485-36.604h0.784v0.393
		v2.873h11.992"/>
	<path fill="none" d="M28.356,52.873h-6.113c-2.304,0-4.384-0.955-5.878-2.482l0.782-27.721h0.784v3.266"/>
	<path fill="none" d="M16.365,59.273v-5.84c1.682,1.129,3.703,1.791,5.878,1.791h6.113"/>
	<rect x="20.282" y="8.431" fill="#434242" width="11.992" height="2.873"/>
	<path fill="#434242" d="M17.155,6.845l0.018-1.158h3.11v2.352h-0.784l-5.485,36.604c0,2.236,0.899,4.264,2.353,5.748v3.043
		c-2.836-1.9-4.703-5.131-4.703-8.791L17.148,7.02C17.147,6.962,17.15,6.908,17.155,6.845z"/>
	<path fill="#434242" d="M22.242,52.873h6.113v2.352h-6.113c-2.175,0-4.196-0.662-5.878-1.791V50.39
		C17.859,51.917,19.939,52.873,22.242,52.873z"/>
	<path fill="#401E10" d="M32.275,11.304"/>
	<path fill="#401E10" d="M28.356,55.224"/>
	<line fill="none" x1="32.275" y1="11.304" x2="32.275" y2="8.431"/>
	<line fill="none" x1="28.356" y1="55.224" x2="28.356" y2="52.873"/>
</g>
<path fill="#434242" stroke="#434242" stroke-width="3" d="M33.632,55.093H21.84c-5.008,0-9.068-4.211-9.068-9.406v107.24
	c0,5.193,4.062,9.404,9.068,9.404h11.792c5.008,0,9.069-4.211,9.069-9.404V45.687C42.701,50.882,38.64,55.093,33.632,55.093z"/>
<path fill="#E6E6E6" d="M43.092,141.65l-1.566,2.352v0.74c0,4.537-3.541,8.229-7.894,8.229H21.84c-4.353,0-7.894-3.69-7.894-8.229
	v-0.74l-1.566-2.352h-0.784v3.092c0,5.834,4.596,10.58,10.244,10.58h11.792c5.649,0,10.244-4.746,10.244-10.58v-3.092H43.092z"/>
<path fill="#E6E6E6" d="M43.092,52.437l-1.566,2.352v0.738c0,4.539-3.541,8.23-7.894,8.23H21.84c-4.353,0-7.894-3.691-7.894-8.23
	v-0.738l-1.566-2.352h-0.784v3.09c0,5.836,4.596,10.582,10.244,10.582h11.792c5.649,0,10.244-4.746,10.244-10.582v-3.09H43.092z"/>
<g>
	<path fill="none" d="M73.033,25.935v-3.266h0.783V50.39c1.451-1.484,2.352-3.512,2.352-5.748V8.039h-0.783v0.393v2.873H61.824"/>
	<path fill="none" d="M61.824,52.873h6.113c2.304,0,4.384-0.955,5.879-2.482V22.669h-0.783v3.266"/>
	<path fill="none" d="M73.817,59.273v-5.84c-1.683,1.129-3.705,1.791-5.879,1.791h-6.113"/>
	<rect x="61.824" y="8.431" fill="#434242" width="13.561" height="2.873"/>
	<path fill="#434242" d="M78.512,6.845l-0.017-1.158h-3.113v2.352h0.783v36.604c0,2.236-0.899,4.264-2.352,5.748v3.043
		c2.833-1.9,4.702-5.131,4.702-8.791V7.019C78.52,6.962,78.517,6.908,78.512,6.845z"/>
	<path fill="#434242" d="M67.938,52.873h-6.113v2.352h6.113c2.174,0,4.196-0.662,5.879-1.791V50.39
		C72.322,51.917,70.241,52.873,67.938,52.873z"/>
	<path fill="#401E10" d="M61.824,11.304"/>
	<path fill="#401E10" d="M61.824,55.224"/>
	<line fill="none" x1="61.824" y1="11.304" x2="61.824" y2="8.431"/>
	<line fill="none" x1="61.824" y1="55.224" x2="61.824" y2="52.873"/>
</g>
<g>
	<path fill="none" d="M52.419,25.935v-3.266h-0.784L50.851,50.39c-1.452-1.484-2.351-3.512-2.351-5.748l1.566-36.604h0.783v0.393
		v2.873h11.993"/>
	<path fill="none" d="M62.844,52.873H56.73c-2.302,0-4.384-0.955-5.879-2.482l0.784-27.721h0.784v3.266"/>
	<path fill="none" d="M50.851,59.273v-5.84c1.684,1.129,3.705,1.791,5.879,1.791h6.114"/>
	<rect x="50.851" y="8.431" fill="#434242" width="11.993" height="2.873"/>
	<path fill="#434242" d="M47.724,6.845l0.018-1.158h3.109v2.352h-0.783L48.5,44.642c0,2.236,0.897,4.264,2.351,5.748v3.043
		c-2.833-1.9-4.702-5.131-4.702-8.791l1.567-37.623C47.716,6.962,47.719,6.908,47.724,6.845z"/>
	<path fill="#434242" d="M56.729,52.873h6.114v2.352h-6.114c-2.174,0-4.195-0.662-5.879-1.791V50.39
		C52.346,51.917,54.428,52.873,56.729,52.873z"/>
	<path fill="#401E10" d="M62.844,11.304"/>
	<path fill="#401E10" d="M62.844,55.224"/>
	<line fill="none" x1="62.844" y1="11.304" x2="62.844" y2="8.431"/>
	<line fill="none" x1="62.844" y1="55.224" x2="62.844" y2="52.873"/>
</g>
<path fill="#434242" stroke="#434242" stroke-width="3" d="M68.119,55.093H56.328c-5.01,0-9.069-4.211-9.069-9.406v107.24
	c0,5.193,4.061,9.404,9.069,9.404h11.791c5.008,0,9.067-4.211,9.067-9.404V45.687C77.188,50.882,73.127,55.093,68.119,55.093z"/>
<path fill="#E6E6E6" d="M77.58,141.65l-1.567,2.352v0.74c0,4.537-3.541,8.229-7.894,8.229H56.328c-4.354,0-7.895-3.69-7.895-8.229
	v-0.74l-1.567-2.352h-0.783v3.092c0,5.834,4.596,10.58,10.245,10.58h11.791c5.647,0,10.244-4.746,10.244-10.58v-3.092H77.58z"/>
<path fill="#E6E6E6" d="M77.58,52.437l-1.567,2.352v0.738c0,4.539-3.541,8.23-7.894,8.23H56.328c-4.354,0-7.895-3.691-7.895-8.23
	v-0.738l-1.567-2.352h-0.783v3.09c0,5.836,4.596,10.582,10.245,10.582h11.791c5.647,0,10.244-4.746,10.244-10.582v-3.09H77.58z"/>
<g>
	<path fill="none" d="M119.759,25.935v-3.266h-0.782V50.39c-1.452-1.484-2.353-3.512-2.353-5.748L114.27,8.038h0.784v0.393v2.873
		h11.99"/>
	<path fill="none" d="M130.968,52.873h-6.113c-2.302,0-4.384-0.955-5.878-2.482V22.669h0.782v3.266"/>
	<path fill="none" d="M118.977,59.273v-5.84c1.685,1.129,3.705,1.791,5.878,1.791h6.113"/>
	<rect x="115.058" y="8.431" fill="#434242" width="11.992" height="2.873"/>
	<path fill="#434242" d="M111.93,6.845l0.021-1.158h3.107v2.352h-0.784l2.354,36.604c0,2.236,0.896,4.264,2.353,5.748v3.043
		c-2.834-1.9-4.703-5.131-4.703-8.791L111.923,7.02C111.921,6.962,111.925,6.908,111.93,6.845z"/>
	<path fill="#401E10" d="M124.854,52.873h6.114v2.352h-6.114c-2.173,0-4.194-0.662-5.878-1.791V50.39
		C120.471,51.917,122.553,52.873,124.854,52.873z"/>
	<path fill="#401E10" d="M127.05,11.304"/>
	<path fill="#401E10" d="M130.968,55.224"/>
	<line fill="none" x1="127.05" y1="11.304" x2="127.05" y2="8.431"/>
	<line fill="none" x1="130.968" y1="55.224" x2="130.968" y2="52.873"/>
</g>
<g>
	<path fill="none" d="M140.375,25.935v-3.266h0.785l0.781,27.721c1.451-1.484,2.352-3.512,2.352-5.748L138.81,8.038h-0.784v0.393
		v2.873H126.03"/>
	<path fill="none" d="M129.949,52.873h6.113c2.305,0,4.384-0.955,5.879-2.482L141.16,22.67h-0.785v3.266"/>
	<path fill="none" d="M141.942,59.273v-5.84c-1.683,1.129-3.705,1.791-5.879,1.791h-6.112"/>
	<rect x="126.03" y="8.431" fill="#434242" width="11.993" height="2.873"/>
	<path fill="#434242" d="M141.15,6.845l-0.018-1.158h-3.109v2.352h0.784l5.485,36.604c0,2.236-0.899,4.264-2.354,5.748v3.043
		c2.834-1.9,4.702-5.131,4.702-8.791L141.158,7.02C141.16,6.962,141.155,6.908,141.15,6.845z"/>
	<path fill="#401E10" d="M136.063,52.873h-6.112v2.352h6.112c2.174,0,4.196-0.662,5.879-1.791V50.39
		C140.447,51.917,138.367,52.873,136.063,52.873z"/>
	<path fill="#401E10" d="M126.03,11.304"/>
	<path fill="#401E10" d="M129.949,55.224"/>
	<line fill="none" x1="126.03" y1="11.304" x2="126.03" y2="8.431"/>
	<line fill="none" x1="129.949" y1="55.224" x2="129.949" y2="52.873"/>
</g>
<path fill="#434242" stroke="#434242" stroke-width="3" d="M124.673,55.093h11.793c5.009,0,9.068-4.211,9.068-9.406v107.24
	c0,5.193-4.062,9.404-9.068,9.404h-11.793c-5.008,0-9.067-4.211-9.067-9.404V45.687C115.605,50.882,119.666,55.093,124.673,55.093z"
	/>
<path fill="#E6E6E6" d="M115.214,141.65l1.563,2.352v0.74c0,4.537,3.541,8.229,7.896,8.229h11.793c4.353,0,7.893-3.69,7.893-8.229
	v-0.74l1.566-2.352h0.785v3.092c0,5.834-4.596,10.58-10.244,10.58h-11.793c-5.647,0-10.243-4.746-10.243-10.58v-3.092H115.214z"/>
<path fill="#E6E6E6" d="M115.214,52.437l1.563,2.352v0.738c0,4.539,3.541,8.23,7.896,8.23h11.793c4.353,0,7.893-3.691,7.893-8.23
	v-0.738l1.566-2.352h0.785v3.09c0,5.836-4.596,10.582-10.244,10.582h-11.793c-5.647,0-10.243-4.746-10.243-10.582v-3.09H115.214z"/>
<g>
	<path fill="none" d="M85.273,25.935v-3.266H84.49V50.39c-1.453-1.484-2.354-3.512-2.354-5.748V8.039h0.783v0.393v2.873H96.48"/>
	<path fill="none" d="M96.481,52.873h-6.112c-2.305,0-4.385-0.955-5.877-2.482V22.669h0.781v3.266"/>
	<path fill="none" d="M84.489,59.273v-5.84c1.685,1.129,3.704,1.791,5.88,1.791h6.112"/>
	<rect x="82.921" y="8.431" fill="#434242" width="13.561" height="2.873"/>
	<path fill="#434242" d="M79.794,6.845l0.017-1.158h3.11v2.352h-0.783v36.604c0,2.236,0.898,4.264,2.354,5.748v3.043
		c-2.834-1.9-4.703-5.131-4.703-8.791V7.019C79.787,6.962,79.789,6.908,79.794,6.845z"/>
	<path fill="#401E10" d="M90.367,52.873h6.113v2.352h-6.113c-2.175,0-4.195-0.662-5.879-1.791V50.39
		C85.984,51.917,88.064,52.873,90.367,52.873z"/>
	<path fill="#401E10" d="M96.481,11.304"/>
	<path fill="#401E10" d="M96.481,55.224"/>
	<line fill="none" x1="96.481" y1="11.304" x2="96.481" y2="8.431"/>
	<line fill="none" x1="96.481" y1="55.224" x2="96.481" y2="52.873"/>
</g>
<g>
	<path fill="none" d="M105.887,25.935v-3.266h0.784l0.783,27.721c1.448-1.484,2.353-3.512,2.353-5.748l-1.568-36.604h-0.782v0.393
		v2.873H95.462"/>
	<path fill="none" d="M95.462,52.873h6.113c2.303,0,4.385-0.955,5.879-2.482l-0.783-27.721h-0.784v3.266"/>
	<path fill="none" d="M107.455,59.273v-5.84c-1.684,1.129-3.703,1.791-5.879,1.791h-6.113"/>
	<rect x="95.462" y="8.431" fill="#434242" width="11.992" height="2.873"/>
	<path fill="#434242" d="M110.582,6.845l-0.018-1.158h-3.109v2.352h0.782l1.568,36.604c0,2.236-0.899,4.264-2.354,5.748v3.043
		c2.836-1.9,4.701-5.131,4.701-8.791l-1.564-37.624C110.589,6.962,110.587,6.908,110.582,6.845z"/>
	<path fill="#401E10" d="M101.576,52.873h-6.113v2.352h6.113c2.176,0,4.195-0.662,5.879-1.791V50.39
		C105.96,51.917,103.878,52.873,101.576,52.873z"/>
	<path fill="#401E10" d="M95.462,11.304"/>
	<path fill="#401E10" d="M95.462,55.224"/>
	<line fill="none" x1="95.462" y1="11.304" x2="95.462" y2="8.431"/>
	<line fill="none" x1="95.462" y1="55.224" x2="95.462" y2="52.873"/>
</g>
<path fill="#434242" stroke="#434242" stroke-width="3" d="M90.187,55.093h11.792c5.008,0,9.067-4.211,9.067-9.406v107.24
	c0,5.193-4.062,9.404-9.067,9.404H90.187c-5.008,0-9.066-4.211-9.066-9.404V45.687C81.119,50.882,85.179,55.093,90.187,55.093z"/>
<path fill="#E6E6E6" d="M80.726,141.65l1.566,2.352v0.74c0,4.537,3.541,8.229,7.895,8.229h11.792c4.354,0,7.896-3.69,7.896-8.229
	v-0.74l1.564-2.352h0.784v3.092c0,5.834-4.597,10.58-10.244,10.58H90.187c-5.646,0-10.245-4.746-10.245-10.58v-3.092H80.726z"/>
<path fill="#E6E6E6" d="M80.726,52.437l1.566,2.352v0.738c0,4.539,3.541,8.23,7.895,8.23h11.792c4.354,0,7.896-3.691,7.896-8.23
	v-0.738l1.564-2.352h0.784v3.09c0,5.836-4.597,10.582-10.244,10.582H90.187c-5.646,0-10.245-4.746-10.245-10.582v-3.09H80.726z"/>
<text transform="matrix(0.0011 -1 1 0.0011 31.2559 144.8027)" fill="#FFFFFF" font-family="'REVOLUTION'" font-size="12">JAVASCRIPT</text>
<text transform="matrix(0.0011 -1 1 0.0011 65.8438 139.8027)" fill="#FFFFFF" font-family="'REVOLUTION'" font-size="12">OOP</text>
<text transform="matrix(0.0011 -1 1 0.0011 100.4819 140.8027)" fill="#FFFFFF" font-family="'REVOLUTION'" font-size="12">ANGULAR</text>
<text transform="matrix(0.0011 -1 1 0.0011 135.1616 140.8027)" fill="#FFFFFF" font-family="'REVOLUTION'" font-size="12">JQUERY</text>
</svg>
