<?xml version="1.0" encoding="utf-8"?>
<!-- Generator: Adobe Illustrator 14.0.0, SVG Export Plug-In . SVG Version: 6.00 Build 43363)  -->
<!DOCTYPE svg PUBLIC "-//W3C//DTD SVG 1.1//EN" "http://www.w3.org/Graphics/SVG/1.1/DTD/svg11.dtd">
<svg version="1.1" id="Layer_1" xmlns="http://www.w3.org/2000/svg" xmlns:xlink="http://www.w3.org/1999/xlink" x="0px" y="0px"
	 width="539px" height="539px" viewBox="0 0 539 539" enable-background="new 0 0 539 539" xml:space="preserve">
<path fill="#317FED" stroke="#424242" d="M525.5,445.5c0,44.182-35.816,80-80,80h-352c-44.184,0-80-35.818-80-80v-352
	c0-44.183,35.818-80,80-80h352c44.184,0,80,35.817,80,80V445.5z"/>
<g id="Layer_3">
	<path fill="none" stroke="#424242" stroke-width="27" d="M525.5,445.5c0,44.182-35.816,80-80,80h-352c-44.184,0-80-35.818-80-80
		v-352c0-44.183,35.818-80,80-80h352c44.184,0,80,35.817,80,80V445.5z"/>
</g>
<path fill="#FFFFFF" d="M394.709,162.38c-18.367-27.545-42.84-48.986-85.007-52.73c2.638-3.485,7.382-4.711,12.274-5.002
	c16.207-0.963,31.967,6.983,44.094,15.003c11.771,7.784,23.382,18.756,27.729,30.912C395.153,154.347,395.33,159.122,394.709,162.38
	z"/>
<path fill="#FFFFFF" d="M322.885,176.474c-23.197,38.781-47.87,76.085-71.369,114.555c-13.369,9.384-40.728,10.201-59.099,4.549
	c26.332-43.373,53.479-85.931,80.467-128.651C291.141,160.567,310.438,169.777,322.885,176.474z"/>
<path fill="#1A69C6" d="M163.322,436.954l110.01,72.419h186.217c0,0,52.497-9,52.497-65.997s0-221.989,0-221.989l-104.639-87.913
	L163.322,436.954z"/>
<path fill="#FFFFFF" d="M369.705,203.295c-17.474-29.046-42.396-50.643-85.918-53.643c6.752-10.946,8.992-21.338,28.185-20
	c25.941,1.808,63.062,26.611,67.279,50.46C381.034,190.16,373.104,195.215,369.705,203.295z"/>
<path fill="#FFFFFF" d="M250.608,298.76c0.756,25.004,10.999,40.518,22.724,54.553c-22.432,13.324-46.213,25.302-69.094,38.186
	c-4.183-5.521-9.217-10.183-18.187-10.914c0.735-26.689,2.833-52.021,3.636-78.643C207.74,307.184,236.542,308.322,250.608,298.76z"
	/>
<path fill="#424242" d="M320.158,84.647c2.727,0,5.455,0,8.184,0c22.644,2.384,41.033,11.876,55.459,23.183
	c14.314,11.229,27.832,25.567,31.367,47.278c0,2.272,0,4.546,0,6.818c-2.088,12.996-9.775,21.618-16.823,32.731
	c-36.427,57.456-72.138,115.778-108.188,172.743c-42.296,23.168-84.92,46.008-126.834,69.553c-1.03-0.481-0.171-2.856-0.453-4.089
	c2.72-46.529,5.003-93.492,7.276-140.47c34.805-55.776,72.788-115.295,108.188-171.836
	C288.699,104.01,295.999,86.042,320.158,84.647z M379.251,180.112c-4.219-23.85-41.338-48.652-67.279-50.46
	c-19.191-1.338-21.433,9.054-28.185,20c43.521,3,68.443,24.597,85.918,53.643C373.104,195.215,381.034,190.16,379.251,180.112z
	 M272.884,166.927c-26.985,42.721-54.135,85.278-80.467,128.651c18.371,5.65,45.729,4.835,59.099-4.549
	c23.499-38.47,48.172-75.774,71.369-114.555C310.438,169.777,291.141,160.567,272.884,166.927z M189.688,301.941
	c-0.803,26.619-2.899,51.951-3.636,78.642c8.97,0.731,14.004,5.394,18.187,10.914c22.881-12.884,46.662-24.86,69.094-38.187
	c-11.725-14.033-21.968-29.547-22.724-54.552C236.542,308.322,207.74,307.184,189.688,301.941z M393.8,150.562
	c-4.348-12.156-15.957-23.128-27.729-30.912c-12.127-8.02-27.887-15.966-44.094-15.003c-4.894,0.291-9.638,1.517-12.274,5.002
	c42.167,3.744,66.64,25.186,85.007,52.73C395.33,159.122,395.153,154.347,393.8,150.562z"/>
<path fill="#FFFFFF" d="M185.25,385.255l-2.369,21.087l15.282-11.373C198.163,394.969,199.229,391.652,185.25,385.255z"/>
</svg>
